<!DOCTYPE svg PUBLIC "-//W3C//DTD SVG 1.1//EN" "http://www.w3.org/Graphics/SVG/1.1/DTD/svg11.dtd">
<!-- Uploaded to: SVG Repo, www.svgrepo.com, Transformed by: SVG Repo Mixer Tools -->
<svg fill="#3465a4" height="205px" width="205px" version="1.1" xmlns="http://www.w3.org/2000/svg" viewBox="0 0 512.00 512.00" xmlns:xlink="http://www.w3.org/1999/xlink" enable-background="new 0 0 512 512" stroke="#3465a4" stroke-width="0.00512">
<g id="SVGRepo_bgCarrier" stroke-width="0"/>
<g id="SVGRepo_tracerCarrier" stroke-linecap="round" stroke-linejoin="round" stroke="#CCCCCC" stroke-width="1.024"/>
<g id="SVGRepo_iconCarrier"> <g> <g> <path d="m449.3,297.7h-172.9v-82.3c0-11.3-9.1-20.4-20.4-20.4s-20.4,9.1-20.4,20.4v82.3h-172.9c-28.5,0-51.7,23.2-51.7,51.7v99.9c0,28.5 23.2,51.7 51.7,51.7h386.7c28.5,0 51.7-23.2 51.7-51.7v-99.9c-0.1-28.5-23.3-51.7-51.8-51.7zm10.9,151.6c0,6-4.9,10.8-10.8,10.8h-386.7c-6,0-10.8-4.9-10.8-10.8v-99.9c0-6 4.9-10.8 10.8-10.8h386.7c6,0 10.8,4.9 10.8,10.8v99.9z"/> <path d="m156.2,93.1c55-55 144.5-55 199.6,0 4,4 9.2,6 14.4,6 5.2,0 10.5-2 14.4-6 8-8 8-20.9 0-28.9-70.9-70.9-186.3-70.9-257.3,0-8,8-8,20.9 0,28.9 8,8 20.9,8 28.9,0z"/> <path d="m194.3,131.1c-8,8-8,20.9 0,28.9 4,4 9.2,6 14.4,6 5.2,0 10.4-2 14.4-6 18.1-18.1 47.6-18.1 65.7,0 8,8 20.9,8 28.9,0 8-8 8-20.9 0-28.9-34-34-89.4-34-123.4,0z"/> <path d="m269.8,378.9h-27.6c-11.3,0-20.4,9.1-20.4,20.4s9.1,20.4 20.4,20.4h27.6c11.3,0 20.4-9.1 20.4-20.4s-9.1-20.4-20.4-20.4z"/> </g> </g> </g>
</svg>