<?xml version="1.0" encoding="iso-8859-1"?>
<!-- Uploaded to: SVG Repo, www.svgrepo.com, Generator: SVG Repo Mixer Tools -->
<!DOCTYPE svg PUBLIC "-//W3C//DTD SVG 1.1//EN" "http://www.w3.org/Graphics/SVG/1.1/DTD/svg11.dtd">
<svg fill="#3465a4" height="800px" width="800px" version="1.1" id="Capa_1" xmlns="http://www.w3.org/2000/svg" xmlns:xlink="http://www.w3.org/1999/xlink" 
	 viewBox="0 0 299 299" xml:space="preserve">
<g>
	<path d="M291.333,215.495H158v-17.168c24-1.86,45.148-11.828,61.868-28.547c18.618-18.618,28.955-43.372,28.955-69.701
		c0-26.33-10.212-51.084-28.83-69.701c-18.618-18.619-43.351-28.873-69.68-28.873c-26.33,0-51.074,10.254-69.693,28.872
		c-38.432,38.434-38.593,100.97-0.16,139.403C97.179,186.499,119,196.467,142,198.327v17.168H8.333c-4.418,0-8.333,3.582-8.333,8v66
		c0,4.418,3.915,8,8.333,8h283c4.418,0,7.667-3.582,7.667-8v-66C299,219.077,295.751,215.495,291.333,215.495z M42.333,272.495
		c-8.837,0-16-7.163-16-16c0-8.837,7.163-16,16-16s16,7.163,16,16C58.333,265.332,51.17,272.495,42.333,272.495z M142,182.266
		c-19-1.818-36.527-10.105-50.222-23.8c-32.194-32.194-32.111-84.58,0.083-116.774c15.597-15.598,36.375-24.186,58.43-24.186
		s42.812,8.589,58.408,24.186c15.597,15.596,24.197,36.331,24.197,58.388c0,22.056-8.751,42.791-24.348,58.387
		C194.854,172.16,177,180.447,158,182.266v-23.688c13-1.716,24.674-7.504,33.917-16.747c11.152-11.152,17.378-25.98,17.378-41.752
		s-6.101-30.6-17.253-41.753c-11.152-11.152-25.96-17.294-41.731-17.294s-30.59,6.142-41.743,17.295
		c-23.021,23.023-23.182,60.482-0.16,83.504c9.243,9.243,21.593,15.032,33.593,16.747V182.266z M138.852,111.393
		c1.012,1.012,2.148,1.842,3.148,2.526v28.461c-8-1.58-16.062-5.651-22.274-11.862c-16.783-16.784-16.7-44.094,0.082-60.877
		c8.132-8.131,18.984-12.608,30.482-12.608c11.498,0,22.328,4.478,30.458,12.608c8.131,8.13,12.62,18.94,12.62,30.438
		c0,11.498-4.64,22.308-12.771,30.438c-6.21,6.21-13.598,10.281-22.598,11.861v-28.461c2-0.685,2.468-1.515,3.479-2.525
		c6.249-6.248,6.332-16.38,0.083-22.628c-6.247-6.248-16.421-6.248-22.669,0C132.646,95.013,132.604,105.145,138.852,111.393z"/>
</g>
</svg>